<?xml version="1.0" encoding="UTF-8"?>
<svg width="99px" height="99px" viewBox="0 0 99 99" version="1.1" xmlns="http://www.w3.org/2000/svg" xmlns:xlink="http://www.w3.org/1999/xlink">
    <!-- Generator: Sketch 49.1 (51147) - http://www.bohemiancoding.com/sketch -->
    <title>Logo</title>
    <desc>Created with Sketch.</desc>
    <defs></defs>
    <g id="Desktop" stroke="none" stroke-width="1" fill="none" fill-rule="evenodd">
        <g id="Login" transform="translate(-671.000000, -296.000000)">
            <g transform="translate(520.000000, 262.000000)" id="Logo">
                <g transform="translate(153.000000, 36.000000)">
                    <rect id="Rectangle-path" stroke="#424242" stroke-width="2.2672" x="0" y="0" width="95" height="95"></rect>
                    <polygon id="Shape" fill="#424242" fill-rule="nonzero" points="13.2593332 22.8829792 13.2593332 42.1143954 8 42.1143954 8 10 26.7294869 30.1170208 26.7294869 10.8134085 32 10.8134085 32 43"></polygon>
                    <polygon id="Shape" fill="#424242" fill-rule="nonzero" points="37 11 57 11 57 16.2323424 42.4177632 16.2323424 42.4177632 23.8862122 55.3322368 23.8862122 55.3322368 29.1185546 42.4177632 29.1185546 42.4177632 36.7565351 57 36.7565351 57 42 37 42"></polygon>
                    <polygon id="Shape" fill="#424242" fill-rule="nonzero" points="77.2282512 26.655715 86.8815157 42 80.6370753 42 73.494396 30.6407483 66.3581213 42 60.1136808 42 69.7669454 26.6636597 60 11.0079446 66.2444405 11.0079446 73.494396 22.6309585 80.7555595 11 87 11"></polygon>
                    <polygon id="Shape" fill="#424242" fill-rule="nonzero" points="8 54 28 54 28 59.2336837 13.4177632 59.2336837 13.4177632 66.8831582 26.3322368 66.8831582 26.3322368 72.1168418 13.4177632 72.1168418 13.4177632 85 8 85"></polygon>
                    <path d="M29.0000029,69.9999986 C29.0000029,61.1634434 36.1634462,54 45.0000014,54 C53.8365566,54 61,61.1634434 61,69.9999986 C61,78.8365538 53.8365566,85.9999971 45.0000014,85.9999971 C40.7557576,86.0025444 36.6846151,84.3176532 33.683481,81.316519 C30.6823468,78.3153849 28.9974556,74.2442424 29.0000029,69.9999986 Z M55.7343599,69.9999986 C55.7343599,64.0715761 50.9284239,59.2656401 45.0000014,59.2656401 C39.071579,59.2656401 34.265643,64.0715761 34.265643,69.9999986 C34.265643,75.928421 39.071579,80.734357 45.0000014,80.734357 C47.8475807,80.7364803 50.5791406,79.6062241 52.5926838,77.5926809 C54.606227,75.5791377 55.7364832,72.8475778 55.7343599,69.9999986 Z" id="Shape" fill="#424242" fill-rule="nonzero"></path>
                    <polygon id="Shape" fill="#424242" fill-rule="nonzero" points="68.2626814 65.8813749 68.2626814 85.1063737 63 85.1063737 63 53 81.7389163 73.1170208 81.7389163 53.8134085 87 53.8134085 87 86"></polygon>
                </g>
            </g>
        </g>
    </g>
</svg>